<mxfile host="app.diagrams.net" modified="2024-02-08T04:17:58.473Z" agent="Mozilla/5.0 (Windows NT 10.0; Win64; x64; rv:122.0) Gecko/20100101 Firefox/122.0" etag="GO2MiS8R01hWyEsMrHv0" version="23.1.2" type="device">
  <diagram name="Page-1" id="WMwnWCCaCfsvQm1mBxVF">
    <mxGraphModel dx="1050" dy="558" grid="1" gridSize="10" guides="1" tooltips="1" connect="1" arrows="1" fold="1" page="1" pageScale="1" pageWidth="850" pageHeight="1100" math="0" shadow="0">
      <root>
        <mxCell id="0" />
        <mxCell id="1" parent="0" />
        <mxCell id="ahWLvxIrqyS1sp5xwYGM-2" value="" style="rounded=0;whiteSpace=wrap;html=1;fillColor=#030303;" vertex="1" parent="1">
          <mxGeometry x="40" y="30" width="880" height="530" as="geometry" />
        </mxCell>
        <mxCell id="ahWLvxIrqyS1sp5xwYGM-3" value="" style="rounded=0;whiteSpace=wrap;html=1;fillColor=#dae8fc;strokeColor=#6c8ebf;" vertex="1" parent="1">
          <mxGeometry x="80" y="150" width="520" height="170" as="geometry" />
        </mxCell>
        <mxCell id="ahWLvxIrqyS1sp5xwYGM-5" value="" style="ellipse;whiteSpace=wrap;html=1;" vertex="1" parent="1">
          <mxGeometry x="110" y="155" width="140" height="120" as="geometry" />
        </mxCell>
        <mxCell id="ahWLvxIrqyS1sp5xwYGM-6" value="&lt;h1&gt;Monthly expenses&lt;br&gt;&lt;/h1&gt;&lt;p&gt;Categories&lt;/p&gt;&lt;p&gt;Bills&lt;/p&gt;&lt;p&gt;Groceries&lt;/p&gt;&lt;p&gt;Misc.&lt;br&gt;&lt;/p&gt;" style="text;html=1;strokeColor=none;fillColor=none;spacing=5;spacingTop=-20;whiteSpace=wrap;overflow=hidden;rounded=0;" vertex="1" parent="1">
          <mxGeometry x="280" y="150" width="240" height="120" as="geometry" />
        </mxCell>
        <mxCell id="ahWLvxIrqyS1sp5xwYGM-7" value="" style="endArrow=none;html=1;rounded=0;entryX=1;entryY=0;entryDx=0;entryDy=0;" edge="1" parent="1" target="ahWLvxIrqyS1sp5xwYGM-5">
          <mxGeometry width="50" height="50" relative="1" as="geometry">
            <mxPoint x="140" y="260" as="sourcePoint" />
            <mxPoint x="190" y="210" as="targetPoint" />
          </mxGeometry>
        </mxCell>
        <mxCell id="ahWLvxIrqyS1sp5xwYGM-10" value="" style="rounded=0;whiteSpace=wrap;html=1;fillColor=#dae8fc;strokeColor=#6c8ebf;" vertex="1" parent="1">
          <mxGeometry x="80" y="340" width="520" height="200" as="geometry" />
        </mxCell>
        <mxCell id="ahWLvxIrqyS1sp5xwYGM-11" value="&lt;h1&gt;Recent Transactions&lt;br&gt;&lt;/h1&gt;&lt;p&gt;&lt;br&gt;&lt;/p&gt;" style="text;html=1;strokeColor=none;fillColor=none;spacing=5;spacingTop=-20;whiteSpace=wrap;overflow=hidden;rounded=0;" vertex="1" parent="1">
          <mxGeometry x="100" y="340" width="430" height="40" as="geometry" />
        </mxCell>
        <mxCell id="ahWLvxIrqyS1sp5xwYGM-13" value="&lt;h1&gt;Paypal&amp;nbsp;&amp;nbsp;&amp;nbsp;&amp;nbsp;&amp;nbsp;&amp;nbsp;&amp;nbsp;&amp;nbsp; $300&lt;br&gt;&lt;/h1&gt;" style="text;html=1;strokeColor=none;fillColor=none;spacing=5;spacingTop=-20;whiteSpace=wrap;overflow=hidden;rounded=0;" vertex="1" parent="1">
          <mxGeometry x="100" y="380" width="280" height="60" as="geometry" />
        </mxCell>
        <mxCell id="ahWLvxIrqyS1sp5xwYGM-14" value="&lt;h1&gt;Paypal&amp;nbsp;&amp;nbsp;&amp;nbsp;&amp;nbsp;&amp;nbsp;&amp;nbsp;&amp;nbsp;&amp;nbsp; $300&lt;br&gt;&lt;/h1&gt;" style="text;html=1;strokeColor=none;fillColor=none;spacing=5;spacingTop=-20;whiteSpace=wrap;overflow=hidden;rounded=0;" vertex="1" parent="1">
          <mxGeometry x="100" y="430" width="280" height="60" as="geometry" />
        </mxCell>
        <mxCell id="ahWLvxIrqyS1sp5xwYGM-15" value="" style="rounded=0;whiteSpace=wrap;html=1;fillColor=#dae8fc;strokeColor=#6c8ebf;" vertex="1" parent="1">
          <mxGeometry x="650" y="150" width="250" height="180" as="geometry" />
        </mxCell>
        <mxCell id="ahWLvxIrqyS1sp5xwYGM-16" value="&lt;h1&gt;Total amount&lt;br&gt;&lt;/h1&gt;&lt;font style=&quot;font-size: 28px;&quot;&gt;$500000&lt;/font&gt;" style="text;html=1;strokeColor=none;fillColor=none;spacing=5;spacingTop=-20;whiteSpace=wrap;overflow=hidden;rounded=0;" vertex="1" parent="1">
          <mxGeometry x="670" y="160" width="190" height="120" as="geometry" />
        </mxCell>
        <mxCell id="ahWLvxIrqyS1sp5xwYGM-17" value="" style="rounded=0;whiteSpace=wrap;html=1;" vertex="1" parent="1">
          <mxGeometry x="80" y="50" width="70" height="50" as="geometry" />
        </mxCell>
        <mxCell id="ahWLvxIrqyS1sp5xwYGM-19" value="Logo" style="text;html=1;strokeColor=none;fillColor=none;align=center;verticalAlign=middle;whiteSpace=wrap;rounded=0;" vertex="1" parent="1">
          <mxGeometry x="85" y="60" width="60" height="30" as="geometry" />
        </mxCell>
        <mxCell id="ahWLvxIrqyS1sp5xwYGM-20" value="" style="rounded=1;whiteSpace=wrap;html=1;fillColor=#d5e8d4;strokeColor=#82b366;" vertex="1" parent="1">
          <mxGeometry x="755" y="50" width="70" height="40" as="geometry" />
        </mxCell>
        <mxCell id="ahWLvxIrqyS1sp5xwYGM-21" value="&lt;b&gt;&lt;font face=&quot;Comic Sans MS&quot;&gt;Login&lt;/font&gt;&lt;/b&gt;" style="text;html=1;strokeColor=none;fillColor=none;align=center;verticalAlign=middle;whiteSpace=wrap;rounded=0;" vertex="1" parent="1">
          <mxGeometry x="760" y="55" width="60" height="30" as="geometry" />
        </mxCell>
        <mxCell id="ahWLvxIrqyS1sp5xwYGM-22" value="&lt;b&gt;&lt;br&gt;&lt;/b&gt;&lt;div&gt;&lt;b&gt;My Finance&lt;/b&gt;&lt;/div&gt;" style="text;html=1;strokeColor=none;fillColor=none;spacing=5;spacingTop=-20;whiteSpace=wrap;overflow=hidden;rounded=0;" vertex="1" parent="1">
          <mxGeometry x="80" y="115" width="80" height="40" as="geometry" />
        </mxCell>
        <mxCell id="ahWLvxIrqyS1sp5xwYGM-24" value="" style="ellipse;whiteSpace=wrap;html=1;aspect=fixed;fillColor=#d5e8d4;strokeColor=#82b366;" vertex="1" parent="1">
          <mxGeometry x="840" y="50" width="40" height="40" as="geometry" />
        </mxCell>
        <mxCell id="ahWLvxIrqyS1sp5xwYGM-25" value="Logout" style="text;html=1;strokeColor=none;fillColor=none;align=center;verticalAlign=middle;whiteSpace=wrap;rounded=0;" vertex="1" parent="1">
          <mxGeometry x="760" y="70" width="60" height="30" as="geometry" />
        </mxCell>
        <mxCell id="ahWLvxIrqyS1sp5xwYGM-26" value="Profile" style="text;html=1;strokeColor=none;fillColor=none;align=center;verticalAlign=middle;whiteSpace=wrap;rounded=0;" vertex="1" parent="1">
          <mxGeometry x="830" y="55" width="60" height="30" as="geometry" />
        </mxCell>
        <mxCell id="ahWLvxIrqyS1sp5xwYGM-27" value="" style="rounded=1;whiteSpace=wrap;html=1;" vertex="1" parent="1">
          <mxGeometry x="250" y="50" width="340" height="50" as="geometry" />
        </mxCell>
        <mxCell id="ahWLvxIrqyS1sp5xwYGM-28" value="Menu" style="text;html=1;strokeColor=none;fillColor=none;align=center;verticalAlign=middle;whiteSpace=wrap;rounded=0;" vertex="1" parent="1">
          <mxGeometry x="260" y="60" width="60" height="30" as="geometry" />
        </mxCell>
        <mxCell id="ahWLvxIrqyS1sp5xwYGM-29" value="Menu" style="text;html=1;strokeColor=none;fillColor=none;align=center;verticalAlign=middle;whiteSpace=wrap;rounded=0;" vertex="1" parent="1">
          <mxGeometry x="330" y="60" width="60" height="30" as="geometry" />
        </mxCell>
        <mxCell id="ahWLvxIrqyS1sp5xwYGM-30" value="Menu" style="text;html=1;strokeColor=none;fillColor=none;align=center;verticalAlign=middle;whiteSpace=wrap;rounded=0;" vertex="1" parent="1">
          <mxGeometry x="395" y="60" width="60" height="30" as="geometry" />
        </mxCell>
        <mxCell id="ahWLvxIrqyS1sp5xwYGM-31" value="Menu" style="text;html=1;strokeColor=none;fillColor=none;align=center;verticalAlign=middle;whiteSpace=wrap;rounded=0;" vertex="1" parent="1">
          <mxGeometry x="460" y="60" width="60" height="30" as="geometry" />
        </mxCell>
        <mxCell id="ahWLvxIrqyS1sp5xwYGM-32" value="Menu" style="text;html=1;strokeColor=none;fillColor=none;align=center;verticalAlign=middle;whiteSpace=wrap;rounded=0;" vertex="1" parent="1">
          <mxGeometry x="520" y="60" width="60" height="30" as="geometry" />
        </mxCell>
      </root>
    </mxGraphModel>
  </diagram>
</mxfile>
